**ABCDEFGHIJKLMNOPQRSTUVWXYZabcdefghijklmnopqrstuvwxyz**************************
**PARASOLID !"#$%&'()*+,-./:;<=>?@[\]^_`{|}~0123456789**************************
**PART1;
MC=unknown;
MC_MODEL=unknown;
MC_ID=unknown;
OS=unknown;
OS_RELEASE=unknown;
FRU=Parasolid 36.0.180;
APPL=Onshape;
SITE=unknown;
USER=unknown;
FORMAT=text;
GUISE=transmit;
KEY=BTGapi::writeModels_.xmt;
FILE=BTGapi::writeModels_.xmt;
DATE=2024-11-16T20:03:30 (UTC);
**PART2;
SCH=SCH_3600180_36001;
USFLD_SIZE=0;
**PART3;
**END_OF_HEADER*****************************************************************
T51 : TRANSMIT FILE created by modeller version 360018023 SCH_3600180_36001_1300
6231 0 12 36 CCCI7 lattice222 0 CCCI4 mesh1006 0 I8 polyline1008 0 CCCCCCCDI5 ow
ner1040 0 CCCI16 boundary_lattice222 0 CCCI13 boundary_mesh1006 0 I17 boundary_p
olyline1008 0 CCCA16 index_map_offset0 0 1 dA9 index_map82 0 A17 node_id_index_m
ap82 0 A20 schema_embedding_map82 0 A5 child12 0 A14 lowest_node_id0 0 1 dA16 me
sh_offset_data206 0 Z1 320 2 3 0 0 0 0 0 0 0 1e3 1e-8 0 4 0 1 0 1 2 5 0 6 7 0 0
 0 8 9 0 0 0 0 0 0 0 0 81 255 1 2 310 10 1 11 0 0 0 12 70 11 CI9 list_type0 0 1
 uI10 notransmit0 0 1 lCCCDCCDI12 finger_index0 0 1 dI12 finger_block1012 0 CZ3
 0 4 T1 0 0 6 20 1 13 13 13 255 5 89 0 1 0 14 0 0 15 0 52 255 6 290 16 17 18 0 0
 -0 0 254e-6 0 0 -1 .00508 .707106781186547 .707106781186548 -1 0 0 31 255 7 259
 0 9 19 0 0 +0 0 0 0 0 1 1 0 0 .005334 19 9 CCCCCCI5 frame230 0 CA5 owner12 0 Z8
 101 0 1 15 0 20 0 V0 16 255 9 256 21 ?22 0 23 7 0 0 1 81 1 21 299 24 9 0 0 25 2
6 27 17 255 22 0 28 22 22 0 29 9 0 0 +16 23 250 25 ?30 9 31 19 0 0 1 81 1 25 298
 24 23 0 0 32 21 33 17 30 0 34 30 30 0 35 23 0 0 +16 31 244 26 ?36 23 37 38 0 0
 1 31 19 253 0 23 38 7 0 -0 0 254e-6 0 0 1 1 0 0 .00508 31 38 247 0 31 39 19 0 +
0 0 .002286 0 0 1 1 0 0 .0049276 31 39 241 0 37 40 38 0 -0 0 .00254 0 0 1 1 0 0
 .0046736 16 37 238 41 ?42 31 43 39 0 0 1 31 40 204 0 43 44 39 0 -0 0 .007112 0
 0 -1 -1 0 0 .005588 16 43 201 45 ?46 37 47 40 0 0 1 31 44 198 0 47 48 40 0 +0 0
 .00635 0 0 -1 -1 0 0 .00635 16 47 195 49 ?50 43 51 44 0 0 1 31 48 156 0 51 52 4
4 0 +0 0 .004572 0 0 -1 -1 0 0 .0046736 16 51 125 53 ?54 47 55 48 0 0 1 31 52 15
4 0 55 56 48 0 +0 0 .002286 0 0 -1 -1 0 0 .00508 16 55 115 57 ?58 51 59 52 0 0 1
 31 56 152 0 59 0 52 0 +0 0 0 0 0 -1 -1 0 0 .00635 16 59 105 60 ?61 55 0 56 0 0
 1 81 1 60 181 24 59 0 0 57 53 62 17 61 0 63 61 61 0 64 59 0 0 +15 255 63 112 0
 61 65 0 17 64 0 66 64 64 0 61 59 0 0 -15 66 170 0 64 67 0 14 255 67 108 68 ?69
 65 70 5 71 -0 0 69 65 20 81 1 68 317 72 67 32 0 73 74 75 14 69 213 74 ?76 67 77
 5 78 +0 0 76 67 20 14 65 113 73 ?67 79 28 5 80 -0 0 67 79 20 15 70 196 0 50 67
 66 51 255 71 144 0 67 0 80 0 -0 0 .001143 0 0 -1 .00635 -1 0 0 13 20 100 0 0 0
 0 0 0 8 14 14 14 141 81 ?82 0 83 5 84 -0 0 82 0 20 81 1 81 311 72 14 85 0 0 86
 87 14 82 133 86 ?88 14 89 5 90 -0 0 88 14 20 15 83 202 0 46 14 0 50 255 84 150
 0 14 90 78 0 +.003175 0 .007112 0 0 -1 -1 0 0 50 90 149 0 82 91 84 0 +.0023368
 0 .004572 0 0 1 1 0 0 52 78 220 92 69 84 18 0 +0 0 .00635 0 0 -1 .00635 .707106
781186548 .707106781186548 -1 0 0 81 2 92 221 93 78 0 0 0 94 95 96 52 18 276 94
 76 78 6 0 -0 0 .00254 0 0 -1 .0046736 .707106781186548 .707106781186548 -1 0 0
 81 2 94 277 93 18 0 0 92 16 97 98 14 76 269 99 ?17 69 100 5 18 +0 0 17 69 20 81
 1 99 319 72 76 101 0 74 102 103 14 17 283 102 ?0 76 104 5 6 +0 0 0 76 20 15 100
 270 0 105 76 106 17 105 0 100 105 105 0 36 31 0 0 -15 106 271 0 107 76 0 17 107
 0 106 107 107 0 42 37 0 0 -17 42 0 108 42 42 0 107 37 0 0 +15 108 239 0 42 88 1
09 14 88 128 110 ?111 82 108 5 91 -0 0 111 82 20 15 109 174 0 112 88 0 17 112 0
 109 112 112 0 54 51 0 0 -17 54 0 89 54 54 0 112 51 0 0 +15 89 132 0 54 82 0 81
 1 110 313 72 88 113 0 86 114 115 14 111 123 114 ?79 88 116 5 117 -0 0 79 88 20
 51 91 148 0 88 117 90 0 +0 0 .001143 0 0 -1 .0046736 -1 0 0 50 117 147 0 111 11
8 91 0 +.0048768 0 .002286 0 0 1 1 0 0 51 118 146 0 79 80 117 0 +0 0 .001143 0 0
 -1 .00508 -1 0 0 14 79 118 119 ?65 111 34 5 118 -0 0 65 111 20 50 80 145 0 65 7
1 118 0 +.005715 0 0 0 0 1 1 0 0 81 1 119 315 72 79 120 0 114 73 121 15 34 251 0
 30 79 122 15 122 172 0 123 79 0 17 123 0 122 123 123 0 58 55 0 0 -17 58 0 124 5
8 58 0 123 55 0 0 +15 124 122 0 58 111 0 80 7 CCCCCDI12 legal_owners0 17 1 lCZ1
 72 0 125 8001 0 0 0 0 3 5 0 0 0 FFFFTFTFFFFFFFFFF2 81 1 120 304 24 79 0 119 101
 126 127 81 1 114 314 72 111 126 0 110 119 128 81 1 73 316 72 65 129 0 119 68 13
0 83 255 3 121 .615686274509804 .811764705882353 .929411764705882 81 1 129 306 2
4 65 0 73 126 113 131 83 3 130 .615686274509804 .811764705882353 .92941176470588
2 80 1 24 132 133 9000 0 0 0 0 3 6 0 0 0 FFTFTFTTFFFFFFFFF1 81 1 126 305 24 111
 0 114 120 129 134 81 1 113 307 24 88 0 110 129 0 135 82 255 3 131 8 4 2 82 3 13
5 8 5 2 82 3 134 8 3 2 79 255 9 133 BTI/DetId83 3 128 .615686274509804 .81176470
5882353 .929411764705882 81 1 101 303 24 76 0 99 136 120 137 82 3 127 8 2 2 81 1
 136 302 24 17 0 102 41 101 138 82 3 137 8 1 2 81 1 102 320 72 17 136 0 99 0 139
 81 1 41 301 24 37 0 0 26 136 140 82 3 138 8 0 2 81 1 26 300 24 31 0 0 21 41 141
 82 3 140 8 3 1 82 3 141 8 2 1 83 3 139 .615686274509804 .811764705882353 .92941
1764705882 79 15 125 SDL/TYSA_COLOUR15 116 245 0 36 111 124 17 36 0 116 36 36 0
 105 31 0 0 +81 1 86 312 72 82 142 0 81 110 143 83 3 115 .615686274509804 .81176
4705882353 .929411764705882 81 1 142 189 24 82 0 86 53 144 145 83 3 143 .6156862
74509804 .811764705882353 .929411764705882 81 1 53 182 24 51 0 0 60 142 146 81 1
 144 190 24 1 0 147 142 45 148 82 3 145 6 6 2 81 1 147 308 149 1 144 11 0 0 150
 81 1 45 225 24 43 0 0 144 49 151 82 3 148 6 0 3 81 1 49 226 24 47 0 0 45 152 15
3 82 3 151 7 0 1 81 1 152 227 24 69 0 74 49 85 154 82 3 153 7 1 1 81 1 74 318 72
 69 152 0 68 99 155 81 1 85 228 24 14 0 81 152 32 156 82 3 154 7 0 2 81 1 32 229
 24 67 0 68 85 25 157 82 3 156 7 1 2 82 3 157 7 2 2 83 3 155 .615686274509804 .8
11764705882353 .929411764705882 80 1 149 158 159 8038 0 0 0 0 0 0 0 0 0 TTTTTTTT
TTTTTFTFT10 81 1 11 309 158 1 147 2 0 0 160 98 255 6 150 80 97 114 116 32 49 80
 1 158 161 162 8017 0 0 0 0 0 0 0 0 0 TTTTTTTTTTTTTFTFT3 84 255 6 160 Part 179 1
3 162 SDL/TYSA_NAME79 14 159 SDL/TYSA_UNAME82 3 146 6 5 1 15 104 284 0 29 17 163
 17 29 0 104 29 29 0 22 9 0 0 -15 163 285 0 35 17 0 17 35 0 163 35 35 0 30 23 0
 0 -83 3 103 .615686274509804 .811764705882353 .929411764705882 80 2 93 164 165
 8044 0 0 0 0 3 5 0 0 0 FFFFTFFFTTFFFFFFF3 2 81 2 16 291 93 6 0 0 94 0 166 167 8
4 6 97 BAAAAB83 3 98 0 254e-6 254e-6 84 6 166 BAAAAB83 3 167 0 254e-6 254e-6 79
 17 165 SDL/TYSA_BLEND_ID84 6 95 BAAAAB83 3 96 -762e-6 0 762e-6 17 46 0 83 46 46
 0 168 43 0 0 +17 168 0 77 168 168 0 46 43 0 0 -15 77 214 0 168 69 169 15 169 21
5 0 170 69 0 17 170 0 169 170 170 0 50 47 0 0 -17 50 0 70 50 50 0 170 47 0 0 +83
 3 87 .615686274509804 .811764705882353 .929411764705882 15 28 257 0 22 65 63 83
 3 75 .615686274509804 .811764705882353 .929411764705882 81 1 57 178 24 55 0 0 0
 60 171 82 3 62 6 4 1 82 3 171 6 1 1 82 3 33 8 0 1 82 3 27 8 1 1 19 15 88 0 1 0
 8 5 0 S0 74 4 CI16 index_map_offset0 0 1 dCCZ20 13 6 0 0 113 16 147 11 2 102 0
 0 0 0 0 0 0 0 0 0 0 0 0 0 80 1 10 72 172 8040 0 0 0 0 3 5 0 0 0 TTTFFFFFFFFFFFF
FF2 83 3 12 .615686274509804 .811764705882353 .929411764705882 79 17 172 SDL/TYS
A_COLOUR_21 0 
